<svg width="1011" height="1540" viewBox="0 0 1011 1540" fill="none" xmlns="http://www.w3.org/2000/svg">
<path d="M465.491 2.5C720.773 2.50007 928.461 210.208 928.461 465.523V605.887C976.883 648.599 1007.52 711.044 1007.53 780.553V1218H979.079C961.959 1218 945.071 1216.99 928.465 1215.06V1439.25C928.465 1493.43 884.398 1537.5 830.229 1537.5C776.057 1537.5 731.991 1493.43 731.991 1439.25V1430.57C719.72 1436.1 706.128 1439.19 691.823 1439.19C637.651 1439.19 593.585 1395.12 593.585 1340.94V1220.88H532.964C338.079 1220.88 179.536 1062.32 179.536 867.414V829.688C127.507 788.733 84.2583 736.482 53.9385 677.798C20.2951 612.687 2.51955 539.286 2.51953 465.525C2.51953 349.179 45.6736 242.736 116.771 161.317L115.665 160.334L117.319 158.467C123.389 151.614 129.91 145.407 136.776 139.8C220.726 55.0739 337.074 2.5 465.491 2.5ZM465.486 59.418C397.473 59.418 333.326 76.2393 276.95 105.924C304.268 111.678 330.5 124.343 352.856 144.135C379.48 167.703 392.647 207.851 392.647 262.734V705.474L388.894 703.298L349.928 680.711C322.902 665.044 297.289 663.483 275.488 675.549L274.453 676.134C251.774 689.201 236.437 716.362 236.437 743.653V867.414C236.437 1030.93 369.463 1163.97 532.96 1163.97H650.485V1340.94C650.486 1363.73 669.029 1382.28 691.818 1382.28C711.302 1382.28 727.652 1368.71 731.987 1350.51V1259.28H788.893V1338.44H790.056V1340.94C790.056 1346.07 789.653 1351.1 788.893 1356.01V1439.25C788.893 1462.04 807.435 1480.58 830.225 1480.58C852.887 1480.58 871.346 1462.25 871.551 1439.63V1204.6C682.199 1156.55 541.678 984.678 541.678 780.56C541.678 652.114 646.166 547.613 774.604 547.613C809.178 547.613 842.018 555.199 871.553 568.776V465.532C871.553 241.602 689.389 59.418 465.486 59.418ZM774.607 604.516C677.551 604.516 598.589 683.493 598.589 780.553C598.589 980.803 754.066 1145.43 950.62 1160.03V780.553C950.62 683.491 871.66 604.516 774.607 604.516ZM315.143 186.741C274.946 151.154 215.756 150.424 174.821 182.25C103.463 255.473 59.4229 355.443 59.4229 465.523C59.4229 573.975 103.51 677.993 179.534 753.716V743.649C179.534 695.975 205.601 650.122 246.042 626.819L247.382 626.058C274.652 610.771 305.02 606.83 335.744 614.106V262.728C335.744 243.613 333.902 227.491 330.372 214.676C326.836 201.838 321.661 192.511 315.144 186.741H315.143ZM579.385 174.67C663.754 174.67 732.387 243.315 732.387 327.685C732.387 412.063 663.754 480.707 579.385 480.707C495.015 480.707 426.383 412.063 426.383 327.685C426.383 243.315 495.017 174.67 579.385 174.67ZM579.387 231.581C526.398 231.581 483.29 274.695 483.29 327.685C483.29 380.681 526.396 423.795 579.387 423.795C632.369 423.795 675.483 380.68 675.483 327.685C675.483 274.696 632.369 231.581 579.387 231.581ZM579.381 287.664C601.483 287.664 619.402 305.584 619.402 327.688C619.402 349.798 601.483 367.722 579.381 367.722C557.274 367.722 539.357 349.798 539.356 327.688C539.356 305.584 557.275 287.664 579.381 287.664Z" fill="#4DAA00" stroke="#4DAA00" stroke-width="5"/>
</svg>
