<svg width="34" height="52" viewBox="0 0 34 52" fill="none" xmlns="http://www.w3.org/2000/svg">
<path d="M15.7354 0.849609C23.9457 0.849835 30.6201 7.67159 30.6201 16.0498V20.6084C32.1702 22.0163 33.1501 24.0653 33.1504 26.3447V40.709H32.1699C31.6461 40.709 31.129 40.6765 30.6201 40.6191V47.8711C30.62 49.6763 29.1812 51.1504 27.4062 51.1504C25.6313 51.1503 24.1925 49.6762 24.1924 47.8711V47.6914C23.8173 47.8486 23.4075 47.9375 22.9775 47.9375C21.2024 47.9375 19.7637 46.4633 19.7637 44.6582V40.8027H17.8945C11.6167 40.8027 6.51472 35.5877 6.51465 29.1836V27.9814C4.85359 26.64 3.47242 24.9329 2.50293 23.0166C1.42159 20.8793 0.849609 18.4705 0.849609 16.0498C0.849619 12.2549 2.22116 8.78159 4.48145 6.11523L4.44434 6.08203L4.54004 5.9707C4.73547 5.74539 4.94517 5.54099 5.16602 5.35645C7.86456 2.57572 11.6061 0.849609 15.7354 0.849609ZM15.7344 2.84668C13.6339 2.84675 11.6488 3.36097 9.89355 4.27344C10.7157 4.47989 11.5024 4.88565 12.1787 5.49707C13.0515 6.28641 13.4736 7.622 13.4736 9.42285V24.0127L13.2471 23.8789L12.001 23.1406C11.1388 22.6302 10.3353 22.5926 9.6582 22.9912C8.95542 23.4047 8.47571 24.2687 8.47559 25.1387V29.1836C8.47566 34.4925 12.7035 38.8064 17.8936 38.8066H21.7246V44.6582C21.7246 45.3682 22.2899 45.9404 22.9775 45.9404C23.5632 45.9403 24.0581 45.525 24.1924 44.9619V41.9209H26.1533V44.5078H26.1914V44.6582C26.1914 44.8269 26.1775 44.9925 26.1533 45.1543V47.8711C26.1535 48.5811 26.7187 49.1533 27.4062 49.1533C28.051 49.1533 28.5879 48.6501 28.6523 48.002L28.6592 47.8711V40.2529C22.5946 38.656 18.1025 33.026 18.1025 26.3447C18.1027 22.1128 21.4747 18.6643 25.626 18.6641C26.7047 18.6641 27.7307 18.8999 28.6592 19.3193V16.0498C28.659 8.76668 22.8575 2.84668 15.7344 2.84668ZM25.627 20.6602C22.5628 20.6602 20.0645 23.2076 20.0645 26.3447C20.0645 32.8291 24.9736 38.1572 31.1885 38.6689V26.3447C31.1884 23.2077 28.6907 20.6604 25.627 20.6602ZM10.876 6.98926C9.61635 5.85054 7.76266 5.82638 6.47949 6.84375C4.21077 9.22379 2.81055 12.4726 2.81055 16.0498C2.81055 19.5176 4.16859 22.8453 6.51465 25.2959V25.1387C6.51472 23.5585 7.36023 22.0374 8.67676 21.2627C9.55097 20.7481 10.5257 20.6009 11.5127 20.8184V9.42285C11.5127 8.80191 11.4547 8.28051 11.3438 7.86914C11.2324 7.45638 11.071 7.16554 10.876 6.98926ZM19.3799 6.47656C22.121 6.47678 24.3455 8.75329 24.3457 11.5449C24.3457 14.337 22.1211 16.614 19.3799 16.6143C16.6384 16.6143 14.4131 14.3371 14.4131 11.5449C14.4133 8.75316 16.6386 6.47656 19.3799 6.47656ZM19.3799 8.47266C17.726 8.47266 16.3742 9.84813 16.374 11.5449C16.374 13.2421 17.7258 14.6182 19.3799 14.6182C21.0335 14.618 22.3848 13.242 22.3848 11.5449C22.3846 9.84825 21.0334 8.47284 19.3799 8.47266ZM19.3789 10.1689C20.1276 10.1689 20.7302 10.788 20.7305 11.5449C20.7305 12.3022 20.1278 12.9219 19.3789 12.9219C18.6301 12.9216 18.0283 12.302 18.0283 11.5449C18.0286 10.7882 18.6303 10.1692 19.3789 10.1689Z" fill="#070248" stroke="#070248" stroke-width="0.3"/>
</svg>
