<svg width="150" height="89" viewBox="0 0 150 89" fill="none" xmlns="http://www.w3.org/2000/svg">
<path d="M145.62 33.2749V25.4542C145.62 11.4186 134.176 0 120.111 0C113.033 0 106.62 2.89203 101.994 7.55293C101.617 7.85958 101.259 8.19914 100.926 8.5741L100.987 8.62806C97.0156 13.1172 94.6013 19.0093 94.6013 25.4543C94.6013 29.5093 95.5808 33.5445 97.4344 37.1236C99.1152 40.3694 101.517 43.2578 104.408 45.5154V47.6676C104.408 58.3641 113.129 67.0663 123.848 67.0663H127.345V73.8406C127.345 76.7586 129.724 79.1326 132.649 79.1326C133.498 79.1326 134.3 78.9315 135.013 78.576V79.2743C135.013 82.1926 137.392 84.5666 140.316 84.5666C143.241 84.5666 145.62 82.1926 145.62 79.2743V66.7275C146.584 66.8451 147.566 66.907 148.562 66.907H150V42.8666C150 39.0438 148.301 35.6116 145.62 33.2749ZM97.4767 25.4542C97.4767 19.3287 99.9344 13.7661 103.916 9.69367C106.235 7.88879 109.593 7.92764 111.873 9.94178C112.65 10.6281 113.061 12.1164 113.061 14.2452V33.8435C111.306 33.3856 109.571 33.5989 108.023 34.4891C105.826 35.7517 104.408 38.2397 104.408 40.8268V41.7126C100.025 37.4836 97.4767 31.5971 97.4767 25.4542ZM142.744 79.2741C142.744 80.6102 141.655 81.6971 140.316 81.6971C138.977 81.6971 137.888 80.6102 137.888 79.2741V74.6632C137.93 74.3949 137.952 74.1203 137.952 73.8405H137.888V69.4651H135.012V74.3863C134.763 75.46 133.799 76.2634 132.649 76.2634C131.31 76.2634 130.22 75.1765 130.22 73.8406V64.1973H123.848C114.714 64.1973 107.283 56.782 107.283 47.6676V40.8271C107.283 39.2715 108.157 37.7234 109.458 36.9754C110.731 36.2431 112.225 36.3305 113.778 37.2286L115.937 38.4769V14.2455C115.937 11.2289 115.211 9.05822 113.779 7.79374C112.455 6.62443 110.883 5.91213 109.255 5.64162C112.48 3.87534 116.18 2.86962 120.11 2.86962C132.591 2.86962 142.744 13.0012 142.744 25.4547V31.3788C141.075 30.5787 139.207 30.1297 137.235 30.1297C130.196 30.1297 124.47 35.8438 124.47 42.867C124.47 54.1216 132.261 63.5933 142.744 66.1968V79.2741H142.744ZM147.124 63.9895C136.094 63.2492 127.345 54.0581 127.345 42.8666C127.345 37.4256 131.782 32.9984 137.235 32.9984C142.688 32.9984 147.124 37.4254 147.124 42.8666V63.9895Z" fill="#D57C19"/>
<path d="M134.758 17.8355C134.758 13.2485 131.017 9.51621 126.42 9.51621C121.823 9.51621 118.083 13.2485 118.083 17.8355C118.083 22.423 121.823 26.1552 126.42 26.1552C131.017 26.1552 134.758 22.423 134.758 17.8355ZM120.958 17.8355C120.958 14.8304 123.408 12.3855 126.42 12.3855C129.432 12.3855 131.882 14.8304 131.882 17.8355C131.882 20.841 129.432 23.2859 126.42 23.2859C123.408 23.2859 120.958 20.841 120.958 17.8355Z" fill="#D57C19"/>
<path d="M128.499 17.8357C128.499 16.6903 127.568 15.7617 126.42 15.7617C125.272 15.7617 124.341 16.6903 124.341 17.8357C124.341 18.9815 125.272 19.9102 126.42 19.9102C127.568 19.9102 128.499 18.9815 128.499 17.8357Z" fill="#D57C19"/>
<path d="M3.69601 88.5442H0V70.3133C0 67.3301 0.95515 64.7888 2.86545 62.6895C4.80343 60.5902 7.29513 59.5405 10.3405 59.5405H19.8505V88.5442H15.9468V63.1867H10.3405C8.31949 63.1867 6.69989 63.7806 5.48173 64.9683C4.29125 66.1561 3.69601 68.0483 3.69601 70.6448V74.1667C5.2464 72.5369 7.46124 71.7221 10.3405 71.7221H14.1196V75.3682H10.3405C8.73477 75.3682 7.41971 75.5616 6.39535 75.9483C5.39867 76.335 4.49889 76.998 3.69601 77.9372V88.5442Z" fill="#D57C19"/>
<path d="M30.7474 89C28.3665 86.7626 26.6085 84.2904 25.4734 81.5833C24.3659 78.8763 23.2585 74.5672 22.1511 68.656H25.9717C27.0514 75.313 28.6433 80.3541 30.7474 83.7793C32.8515 80.3541 34.4435 75.313 35.5232 68.656H39.3438C38.2364 74.5672 37.1151 78.8763 35.98 81.5833C34.8726 84.2904 33.1284 86.7626 30.7474 89Z" fill="#D57C19"/>
<path d="M52.2951 76.8599V80.5889C51.243 79.7879 49.9557 79.3873 48.433 79.3873C47.1317 79.3873 46.1212 79.6498 45.4014 80.1746C44.6816 80.6718 44.3217 81.39 44.3217 82.3291C44.3217 84.1522 45.6783 85.0638 48.3914 85.0638H53.8732V77.1499C53.8732 73.8076 52.2397 72.1364 48.9728 72.1364H42.3283V68.656H49.1805C51.866 68.656 53.9285 69.3189 55.3682 70.6448C56.8078 71.9707 57.5276 73.8766 57.5276 76.3627V88.5442H48.2668C45.9136 88.5442 44.0448 88.0194 42.6605 86.9697C41.2763 85.9201 40.5841 84.387 40.5841 82.3706C40.5841 80.3541 41.3178 78.8211 42.7851 77.7714C44.2524 76.7218 46.0935 76.1969 48.3084 76.1969C49.5542 76.1969 50.8831 76.4179 52.2951 76.8599Z" fill="#D57C19"/>
<path d="M60.4317 80.6718V59.5405H64.1692V80.6718C64.1692 81.6662 64.28 82.4811 64.5015 83.1164C64.7506 83.7241 65.1244 84.166 65.6227 84.4423C66.1211 84.6909 66.6056 84.8566 67.0762 84.9395C67.5469 85.0223 68.1698 85.0638 68.945 85.0638V88.5442C65.8442 88.5442 63.6432 87.9503 62.342 86.7626C61.0685 85.5748 60.4317 83.5445 60.4317 80.6718Z" fill="#D57C19"/>
<path d="M75.3624 88.5442H71.7079V72.1364H68.3026L69.9637 68.656H75.3624V88.5442Z" fill="#D57C19"/>
<path d="M93.0813 68.656V72.1364H85.7308C84.928 72.1364 84.2358 72.2883 83.6544 72.5922C83.073 72.896 82.7823 73.3242 82.7823 73.8766C82.7823 74.2081 82.8515 74.5119 82.99 74.7882C83.1284 75.0368 83.2807 75.2439 83.4468 75.4097C83.6406 75.5754 83.9174 75.755 84.2773 75.9483C84.6649 76.1141 84.9556 76.2384 85.1494 76.3212C85.3709 76.3765 86.2569 76.6527 87.8072 77.1499C89.3576 77.6471 90.5066 78.0615 91.2541 78.3929C92.0016 78.7244 92.5692 79.1802 92.9567 79.7602C93.372 80.3127 93.635 80.8652 93.7458 81.4176C93.8565 81.9424 93.9119 82.4673 93.9119 82.9921C93.9119 86.6935 91.3648 88.5442 86.2707 88.5442H79.0863V85.0638H86.2707C88.8731 85.0638 90.1744 84.3732 90.1744 82.9921C90.1744 82.3291 89.7868 81.7767 89.0116 81.3347C88.2641 80.8928 87.3366 80.5199 86.2292 80.216C85.1494 79.9122 84.0559 79.5669 82.9484 79.1802C81.8687 78.7658 80.9412 78.1167 80.166 77.2328C79.4185 76.3212 79.0448 75.2025 79.0448 73.8766C79.0448 72.1917 79.6954 70.9072 80.9966 70.0233C82.2978 69.1117 83.8759 68.656 85.7308 68.656H93.0813Z" fill="#D57C19"/>
<path d="M94.3324 72.1364L101.766 64.7197V68.656H107.372V72.1364H101.766V80.6718C101.766 81.6386 101.918 82.4396 102.223 83.075C102.555 83.7103 103.026 84.166 103.635 84.4423C104.244 84.6909 104.811 84.8566 105.337 84.9395C105.891 85.0223 106.569 85.0638 107.372 85.0638V88.5442C104.188 88.5442 101.835 87.9365 100.312 86.7211C98.7897 85.5057 98.0284 83.4893 98.0284 80.6718V72.1364H94.3324Z" fill="#D57C19"/>
<path d="M120.76 76.8599V80.5889C119.708 79.7879 118.42 79.3873 116.898 79.3873C115.597 79.3873 114.586 79.6498 113.866 80.1746C113.146 80.6718 112.786 81.39 112.786 82.3291C112.786 84.1522 114.143 85.0638 116.856 85.0638H122.338V77.1499C122.338 73.8076 120.705 72.1364 117.438 72.1364H110.793V68.656H117.645C120.331 68.656 122.393 69.3189 123.833 70.6448C125.273 71.9707 125.992 73.8766 125.992 76.3627V88.5442H116.732C114.378 88.5442 112.51 88.0194 111.125 86.9697C109.741 85.9201 109.049 84.387 109.049 82.3706C109.049 80.3541 109.783 78.8211 111.25 77.7714C112.717 76.7218 114.558 76.1969 116.773 76.1969C118.019 76.1969 119.348 76.4179 120.76 76.8599Z" fill="#D57C19"/>
<path d="M72.5083 63.7253C72.9441 63.7253 73.2973 64.0778 73.2973 64.5125C73.2973 64.9473 72.9441 65.2998 72.5083 65.2998C72.0725 65.2998 71.7193 64.9473 71.7193 64.5125C71.7193 64.0778 72.0725 63.7253 72.5083 63.7253Z" fill="#D57C19"/>
<path fill-rule="evenodd" clip-rule="evenodd" d="M72.5083 61.405C74.2285 61.405 75.6229 62.7963 75.6229 64.5126C75.6229 66.2288 74.2285 67.6201 72.5083 67.6201C70.7881 67.6201 69.3937 66.2288 69.3937 64.5126C69.3937 62.7963 70.7881 61.405 72.5083 61.405ZM72.5083 62.6895C71.4991 62.6895 70.6811 63.5057 70.6811 64.5126C70.6811 65.5194 71.4991 66.3357 72.5083 66.3357C73.5175 66.3357 74.3355 65.5194 74.3355 64.5126C74.3355 63.5057 73.5175 62.6895 72.5083 62.6895Z" fill="#D57C19"/>
</svg>
